<?xml version="1.0" encoding="UTF-8"?>
<svg width="43px" height="50px" viewBox="0 0 43 50" version="1.1" xmlns="http://www.w3.org/2000/svg" xmlns:xlink="http://www.w3.org/1999/xlink">
    <title>hi-face-speech-bubble</title>
    <defs>
        <linearGradient x1="50%" y1="0%" x2="50%" y2="100%" id="linearGradient-1">
            <stop stop-color="#F679A3" offset="0%"></stop>
            <stop stop-color="#E9446A" offset="100%"></stop>
        </linearGradient>
        <filter x="-83.3%" y="-83.3%" width="266.6%" height="266.6%" filterUnits="objectBoundingBox" id="filter-2">
            <feGaussianBlur stdDeviation="19" in="SourceGraphic"></feGaussianBlur>
        </filter>
        <path d="M0,68.6902 L0,15.9037217 C0,7.16646087 7.08308696,0.083373913 15.8203478,0.083373913 L68.6068261,0.083373913 C77.344087,0.083373913 84.4271739,7.16646087 84.4271739,15.9037217 L84.4271739,68.6902 C84.4271739,77.4274609 77.344087,84.5105478 68.6068261,84.5105478 L15.8203478,84.5105478 C7.08308696,84.5105478 0,77.4274609 0,68.6902" id="path-3"></path>
    </defs>
    <g id="UI" stroke="none" stroke-width="1" fill="none" fill-rule="evenodd">
        <g id="010_Signin" transform="translate(-166.000000, -137.000000)">
            <g id="Blob_BG" transform="translate(-50.000000, -176.000000)" fill="url(#linearGradient-1)">
                <circle id="Oval" cx="354" cy="188" r="188"></circle>
            </g>
            <g id="Hi_Blob" transform="translate(145.000000, 119.000000)">
                <path d="M8,81.1049789 L8,38.3221951 C8,31.2407538 13.7407538,25.5 20.8221951,25.5 L63.6049789,25.5 C70.6864201,25.5 76.4271739,31.2407538 76.4271739,38.3221951 L76.4271739,81.1049789 C76.4271739,88.1864201 70.6864201,93.9271739 63.6049789,93.9271739 L20.8221951,93.9271739 C13.7407538,93.9271739 8,88.1864201 8,81.1049789" id="Mask" fill="#2B2E38" opacity="0.400000006" filter="url(#filter-2)"></path>
                <g id="logo" transform="translate(0.000000, 0.500000)">
                    <mask id="mask-4" fill="white">
                        <use xlink:href="#path-3"></use>
                    </mask>
                    <use id="Mask" fill="#FFFFFF" xlink:href="#path-3"></use>
                    <path d="M122.515861,138.217391 L27,67 L37.8888889,57.5 C37.8888889,57.5 53.6005129,56.144144 54.7171717,46.5 C55.0709286,43.4447406 57.4728182,32.900991 56.6969697,28.0667392 C56.3673037,26.0126161 53.8487531,28.9952012 52.9848485,27.5 C49.4641286,21.4065208 44.8181818,38.5 56.6969697,23.5 C78.1065452,43.202155 125,86.5 125,86.5 L122.515861,138.217391 Z" id="Fill-3" fill="#000000" opacity="0.0199999996" mask="url(#mask-4)"></path>
                    <g id="hi-face-speech-bubble" mask="url(#mask-4)" fill="#ED547B" fill-rule="nonzero">
                        <g transform="translate(21.000000, 18.000000)" id="Shape">
                            <path d="M21.5,0 C9.62657337,0 0,9.61328253 0,21.4742878 C0,27.6092905 2.58868831,33.1272364 6.71741471,37.0376338 L5.9981368,49 L16.2104588,42.2692796 C17.9053909,42.6960624 19.6715386,42.9503538 21.5,42.9503538 C33.375207,42.9503538 43,33.3335148 43,21.476066 C43.0017804,9.61328253 33.375207,0 21.5,0 Z M28.7408496,10.5184177 L31.2440792,10.5184177 L29.4814922,17.8306296 L27.6868582,17.8306296 L28.7408496,10.5184177 Z M28.2886303,18.6379604 C29.0791239,18.6379604 29.631045,19.2034477 29.631045,19.9947741 C29.631045,20.9159136 28.9527161,21.577427 28.0447168,21.577427 C27.2524429,21.577427 26.7378953,21.013718 26.7378953,20.2544003 C26.7343491,19.3972782 27.3841918,18.6379604 28.2886303,18.6379604 Z M25.6002401,10.0667392 C26.2785691,10.0667392 26.7646158,10.5184177 26.7646158,11.213718 C26.7646158,12.0370532 26.1343574,12.5207403 25.3919344,12.5207403 C24.7456525,12.5207403 24.2596058,12.0850662 24.2596058,11.3897659 C24.2756293,10.5984395 24.8880838,10.0667392 25.6002401,10.0667392 Z M26.2625455,13.504119 L24.7598957,21.3978225 L22.4329248,21.3978225 L23.9355747,13.504119 L26.2625455,13.504119 Z M13.8229546,10.5184177 L16.1517059,10.5184177 L15.3434084,14.7649066 L19.3047781,14.7649066 L20.1130755,10.5184177 L22.4418268,10.5184177 L20.3730126,21.3996008 L18.0442613,21.3996008 L18.9006293,16.8312466 L14.9570636,16.8312466 L14.0846721,21.3996008 L11.7559208,21.3996008 L13.8229546,10.5184177 Z M21.5,35.9724551 C15.5623965,35.9724551 10.7482196,31.2671747 10.7482196,28.557104 C10.7482196,25.8452549 15.5606161,28.6673562 21.5,28.6673562 C27.4376035,28.6673562 32.25,25.8434767 32.25,28.557104 C32.25,31.2653965 27.4376035,35.9724551 21.5,35.9724551 Z"></path>
                        </g>
                    </g>
                </g>
            </g>
        </g>
    </g>
</svg>